# xmcd
#
# Track frame offsets:
#	150
#	19140
#	42732
#	56635
#	73087
#	80482
#	98002
#	116450
#	127517
#	158410
#	183455
#	205100
#	229942
#	249082
#	276137
#	305420
#	319002
#	333527
#
# Disc length: 4629 seconds
#
# Revision: 1
# Processed by: cddbd v1.5.1PL0 Copyright (c) Steve Scherf et al.
# Submitted via: audiograbber 1.83.01
#
DISCID=ee121312
DTITLE=Edgar Broughton Band - Sing Brother Sing
DYEAR=1970
DGENRE=Progressive Rock
TTITLE0=Theres No Vibrations But Wait!
TTITLE1=The Moth
TTITLE2=Mommas Reward
TTITLE3=Refugee
TTITLE4=Officer Dan
TTITLE5=Old Gopher
TTITLE6=Aphrodite
TTITLE7=Granma
TTITLE8=Psychopath
TTITLE9=Its Falling Away
TTITLE10=Out Demons Out
TTITLE11=Rag Doll
TTITLE12=Theres No Vibrations But Wait
TTITLE13=The Locket
TTITLE14=We've Got The Power
TTITLE15=Up Yours
TTITLE16=Freedom
TTITLE17=Apache Dropout
EXTD=
EXTT0=
EXTT1=
EXTT2=
EXTT3=
EXTT4=
EXTT5=
EXTT6=
EXTT7=
EXTT8=
EXTT9=
EXTT10=
EXTT11=
EXTT12=
EXTT13=
EXTT14=
EXTT15=
EXTT16=
EXTT17=
PLAYORDER=
